<?xml version="1.0" standalone="no"?>
<!DOCTYPE svg PUBLIC "-//W3C//DTD SVG 1.1//EN" "http://www.w3.org/Graphics/SVG/1.1/DTD/svg11.dtd" >
<svg xmlns="http://www.w3.org/2000/svg">
<metadata>
Created by FontForge 20120731 at Thu Jun  8 11:27:32 2017
 By admin
</metadata>
<defs>
<font id="iconfont" horiz-adv-x="1024" >
  <font-face 
    font-family="iconfont"
    font-weight="500"
    font-stretch="normal"
    units-per-em="1024"
    panose-1="2 0 6 3 0 0 0 0 0 0"
    ascent="896"
    descent="-128"
    x-height="792"
    bbox="44 -67 964 832"
    underline-thickness="0"
    underline-position="0"
    unicode-range="U+0078-E648"
  />
<missing-glyph 
 />
    <glyph glyph-name=".notdef" 
 />
    <glyph glyph-name=".notdef" 
 />
    <glyph glyph-name=".null" horiz-adv-x="0" 
 />
    <glyph glyph-name="nonmarkingreturn" horiz-adv-x="341" 
 />
    <glyph glyph-name="x" unicode="x" horiz-adv-x="1001" 
d="M281 543q-27 -1 -53 -1h-83q-18 0 -36.5 -6t-32.5 -18.5t-23 -32t-9 -45.5v-76h912v41q0 16 -0.5 30t-0.5 18q0 13 -5 29t-17 29.5t-31.5 22.5t-49.5 9h-133v-97h-438v97zM955 310v-52q0 -23 0.5 -52t0.5 -58t-10.5 -47.5t-26 -30t-33 -16t-31.5 -4.5q-14 -1 -29.5 -0.5
t-29.5 0.5h-32l-45 128h-439l-44 -128h-29h-34q-20 0 -45 1q-25 0 -41 9.5t-25.5 23t-13.5 29.5t-4 30v167h911zM163 247q-12 0 -21 -8.5t-9 -21.5t9 -21.5t21 -8.5q13 0 22 8.5t9 21.5t-9 21.5t-22 8.5zM316 123q-8 -26 -14 -48q-5 -19 -10.5 -37t-7.5 -25t-3 -15t1 -14.5
t9.5 -10.5t21.5 -4h37h67h81h80h64h36q23 0 34 12t2 38q-5 13 -9.5 30.5t-9.5 34.5q-5 19 -11 39h-368zM336 498v228q0 11 2.5 23t10 21.5t20.5 15.5t34 6h188q31 0 51.5 -14.5t20.5 -52.5v-227h-327z" />
    <glyph glyph-name="huaqiaobaoicon" unicode="&#xe613;" 
d="M867 832h-710q-38 0 -65.5 -27t-27.5 -66v-709q0 -38 27.5 -65.5t65.5 -27.5h710q38 0 65.5 27.5t27.5 65.5v709q0 39 -27.5 66t-65.5 27zM572 240l-44 -45l-45 45l-45 44l45 45l45 45l44 -45l45 -45zM808 143q0 -11 -4 -30q-2 -14 -9.5 -26t-23.5 -21q-10 -6 -21 -9
t-24 -3q-7 -1 -19 2q-13 3 -26 11q-15 9 -23 22q-7 11 -9 25q-2 11 -2 29v28q44 46 44 110q0 66 -47 113t-113.5 47t-113.5 -47t-47 -113q0 -55 34 -98v-37q0 -16 -2 -30t-9 -26q-6 -12 -21 -21q-2 -2 -9 -6q-7 -3 -17 -6q-19 -5 -31 -3q-14 3 -27 12q-15 10 -23 22
q-7 11 -9 25q-1 12 -1 29v367q0 36 -9.5 64t-19 40.5t-15.5 32t0 38.5q3 11 11 22q11 17 33.5 18.5t47.5 -11t48 -33t38 -50t15 -59.5v-50q58 28 118.5 31t110.5 -16.5t90 -53t62.5 -80.5t22.5 -98v-161z" />
    <glyph glyph-name="huaqiaobaologowenzi" unicode="&#xe61e;" 
d="M885 345h38q-4 21 -15 44h-33q9 -22 10 -44zM223 435h-41v-29h-118v-27h118v-71h41v71h119v27h-119v29zM165 484q7 1 19 3q10 2 15 2v-6q-1 -43 41 -42h59q40 0 40 38v16h-31v-11q0 -17 -18 -17h-33q-20 -1 -19 21v11q69 20 98 72h-40q-19 -26 -58 -44v56h-39v-70
q-16 -3 -34 -6v-23zM105 434h39v102q15 18 26 47h-40q-15 -44 -64 -62v-23q23 4 39 12v-76zM576 312h35v118q18 -7 41 -15v25q-48 14 -70 49h68v25h-84q4 15 4 32h5q32 0 63 6v28q-38 -10 -69 -9h-102v-25h64q0 -18 -3 -32h-73v-25h63q-17 -28 -71 -49v-25q23 8 41 15v-44
q2 -41 -29 -55v-24q67 22 64 83v42h-29q37 17 58 45q19 -29 53 -45h-29v-120zM400 309h35v205q14 25 25 72h-37q-11 -69 -53 -96v-21q15 4 30 12v-172zM840 344v58h93v26h-93v43h101v25h-241v-25h99v-43h-91v-26h91v-58h-117v-23h278v23h-120zM728 537h186v-26h39v52h-109
v24h-45v-24h-110v-52h39v26zM239 275q-1 1 -2.5 2t-2.5 1h-2q-1 0 -2.5 -1t-2.5 -2t-1.5 -2.5t-0.5 -2.5v-44q0 -4 -1 -7.5t-3.5 -5.5t-6.5 -3.5t-10 -1.5t-10 1.5t-6 3.5t-3 5.5t-1 7.5v44q0 1 -0.5 2.5t-2 2.5t-2.5 2t-3 1h-1q-1 0 -2.5 -1t-2.5 -2t-1.5 -2.5t-0.5 -2.5
v-44q0 -6 1 -12t5 -11t11.5 -8t19 -3t18.5 3t11 8t5.5 11t1.5 12v44q0 1 -0.5 2.5t-1.5 2.5zM140 278h-1q-2 0 -3.5 -1t-2.5 -2t-1.5 -2t-0.5 -3v-25h-41v25q0 3 -2 5.5t-5 2.5h-1q-2 0 -3.5 -1t-2.5 -2t-1.5 -2t-0.5 -3v-69q0 -4 2.5 -6t5.5 -2h1q3 0 5 2t2 6v28h41v-28
q0 -4 2.5 -6t5.5 -2h1q3 0 5 2.5t2 5.5v69q0 3 -2 5.5t-5 2.5zM655 267.5q-6 5.5 -14 8.5t-17 3t-17 -3t-14 -8.5t-9.5 -14t-3.5 -18t3.5 -17.5t9.5 -13.5t14 -9t17 -3.5t17 3.5t14 9t9.5 13.5t3.5 17.5t-3.5 18t-9.5 14zM650 225q-2 -5 -6 -8.5t-9 -5.5t-11 -2t-11 2
t-9 5.5t-6 8.5t-2 10.5t2 10.5t6 9t9 6t11 2t11 -2t9 -6t6 -9t2 -10.5t-2 -10.5zM847.5 261.5q-1.5 3.5 -4 7t-6.5 6t-9.5 3.5t-13 1t-13.5 -1t-9.5 -3.5t-6 -6t-4 -7t-2 -7.5t-0.5 -8v-45q0 -4 2 -6t5 -2h1q3 0 5.5 2t2.5 6v25h39v-25q0 -4 2.5 -6t5.5 -2h1q3 0 5 2t2 6v45
q0 4 -0.5 8t-2 7.5zM834 242h-39v4q0 4 1 7t3 5.5t6 3.5t9.5 1t9.5 -1t6 -3.5t3 -5.5t1 -7v-4zM941.5 267.5q-6.5 5.5 -14.5 8.5t-16.5 3t-16.5 -3t-14.5 -8.5t-10 -14t-3.5 -18t3.5 -17.5t10 -13.5t14.5 -9t16.5 -3.5t16.5 3.5t14.5 9t10 13.5t3.5 17.5t-3.5 18t-10 14z
M936 225q-2 -5 -5.5 -8.5t-8.5 -5.5t-11.5 -2t-11.5 2t-8.5 5.5t-6 8.5t-2.5 10.5t2.5 10.5t6 9t8.5 6t11.5 2t11.5 -2t8.5 -6t5.5 -9t2 -10.5t-2 -10.5zM328.5 261.5q-1.5 3.5 -4 7t-6.5 6t-9.5 3.5t-13.5 1t-13.5 -1t-9.5 -3.5t-6.5 -6t-4 -7t-2 -7.5t-0.5 -8v-45
q0 -4 2.5 -6t5.5 -2h1q3 0 5 2t2 6v25h40v-25q0 -4 2 -6t5 -2h1q3 0 5.5 2t2.5 6v45q0 4 -0.5 8t-2 7.5zM315 242h-40v4q0 4 1 7t3.5 5.5t6 3.5t9.5 1t9.5 -1t6 -3.5t3.5 -5.5t1 -7v-4zM759.5 230.5q-1.5 2.5 -3.5 4.5t-4 3l2.5 2.5t2.5 3.5t1.5 4.5t0.5 5.5q0 6 -2 10.5
t-6 7.5t-8.5 4.5t-8.5 1.5h-39q-2 0 -3.5 -1t-2.5 -2t-1.5 -2.5t-0.5 -3.5l-1 -67q0 -1 1 -2.5l2 -3t2.5 -2t3.5 -0.5h39q6 0 11 1.5t9 4.5t6.5 8t2.5 11q0 3 -1 6t-2.5 5.5zM703 261h31q4 0 6.5 -2t2.5 -5q0 -4 -2.5 -6.5t-6.5 -2.5h-31v16zM743 212.5q-3 -2.5 -9 -2.5h-31
v18h31q7 0 9.5 -2.5t2.5 -6.5t-3 -6.5zM422 267.5q-6 5.5 -14 8.5t-17 3t-17 -3t-14 -8.5t-9.5 -14t-3.5 -18t3.5 -17.5t9.5 -13.5t14 -9t17 -3.5h2l2 -5q1 -2 2 -3t2.5 -2t3.5 -1q3 0 5.5 2.5t2.5 6.5v2v0q0 1 -0.5 2t-1.5 2q6 2 10.5 6t8 9.5t5.5 11.5t2 13q0 9 -3.5 17.5
t-9.5 14zM415 221.5q-4 -6.5 -11 -10.5l-4 10q-1 3 -3 4.5t-5 1.5q-1 0 -2.5 -1t-2.5 -2t-2 -2.5t-1 -3.5q0 -1 1 -2l2 -7q-5 0 -9.5 3t-7.5 6.5t-5 8t-2 9.5t2 10t6 9t9 6t11 2t11 -2t9 -6t6 -9t2 -10q0 -8 -4 -14.5zM561.5 261.5q-1.5 3.5 -4 7t-6.5 6t-9.5 3.5t-13.5 1
t-13.5 -1t-9.5 -3.5t-6.5 -6t-4 -7t-2 -7.5t-0.5 -8v-45q0 -4 2.5 -6t5.5 -2h1q3 0 5 2t2 6v25h40v-25q0 -4 2 -6t5 -2h1q3 0 5.5 2t2.5 6v45q0 4 -0.5 8t-2 7.5zM548 242h-40v4q0 4 1 7t3.5 5.5t6 3.5t9.5 1t9.5 -1t6 -3.5t3.5 -5.5t1 -7v-4zM463 278h-1q-1 0 -2.5 -1
t-2.5 -2t-1.5 -2t-0.5 -3v-69q0 -4 2 -6t5 -2h1q3 0 5.5 2t2.5 6v69q0 3 -2.5 5.5t-5.5 2.5z" />
    <glyph glyph-name="caidanlan-moren" unicode="&#xe611;" 
d="M730 363q7 16 4.5 34t-13.5 31l-352 387q-14 16 -33.5 15t-33.5 -17.5t-13.5 -39.5t15.5 -39l315 -348l-314 -352q-14 -16 -14.5 -39t13.5 -40t34 -17q19 0 33 15l348 392q1 0 1.5 1t0.5 1.5t0.5 1l0.5 0.5q2 2 6 11q1 0 1.5 1.5z" />
    <glyph glyph-name="caidanlan-shouye" unicode="&#xe612;" 
d="M512 -64h-343q-23 0 -39.5 16.5t-16.5 39.5v391q-39 4 -44.5 26.5t24.5 52.5l339 337q33 33 80 33t80 -33l339 -337q30 -30 24.5 -52.5t-44.5 -26.5v-391q0 -23 -16.5 -39.5t-39.5 -16.5h-144q1 3 1 7v210q0 23 -17 39.5t-40 16.5h-86q-24 0 -40.5 -16.5t-16.5 -39.5
v-210v-7z" />
    <glyph glyph-name="caidanlan-cunguanzijinguanli" unicode="&#xe614;" 
d="M822 578q-28 -43 -69 -66q10 -8 10 -21q0 -11 -8 -19t-20 -8q-40 16 -88.5 23t-76.5 5l-28 -1q-11 0 -19.5 8t-8.5 20q0 16 15 24q-41 39 -48 109q-20 -3 -39 -7.5t-29 -6.5l-9 -3q-14 7 -36.5 17t-73.5 24t-80 8q-12 -7 -19 -14.5t-10 -14.5t-0.5 -16t5 -15t10.5 -16
t12 -14.5t14 -14.5t13 -12q-50 -46 -75 -91.5t-30 -106.5q-8 -21 -27 -24t-26 -12q-9 -12 -12.5 -73t12.5 -90q14 -12 29 -14.5t26.5 1t27.5 -1.5t31 -21q34 -43 81 -77q3 -3 -1.5 -13t-9 -24.5t2.5 -39.5q6 -13 48.5 -16t59.5 5q8 7 7 19t3 11q8 -3 17 -6q5 -5 2.5 -17
t2 -24.5t21.5 -12.5q13 -2 70 0q7 2 10 10t4 14.5t2 6.5q27 -2 53 -2v0q74 0 122 14q12 1 12 -8.5t-3 -20t8 -14.5q8 2 26 0t41.5 0.5t30.5 10.5q11 10 12.5 33.5t2.5 44t10 25.5q74 47 102 107.5t28 151.5q0 79 -36.5 148t-101.5 118zM304 394q-20 0 -34 14t-14 34t14 34
t34 14t34 -14t14 -34t-14 -34t-34 -14zM667 677zM514 676.5q0 -63.5 45 -108.5t108.5 -45t108.5 45t45 108.5t-45 108.5t-108.5 45t-108.5 -45t-45 -108.5z" />
    <glyph glyph-name="caidanlan-huankuanguanli" unicode="&#xe615;" 
d="M670 635q45 -30 103 -38v-100l184 165l-184 170v-111q-42 -6 -75 3q-21 7 -45 18q-20 9 -42 23q-24 15 -43 35q10 -71 56 -124q22 -26 46 -41zM768 165q0 100 -37.5 199t-104.5 171.5t-146 95.5q1 5 1 9v1q0 8 -3 17q30 18 48 49t18 63q0 15 -3.5 26t-13.5 18t-18.5 10.5
t-27 5t-29 2t-34.5 0.5t-34.5 -0.5t-29.5 -2t-27.5 -5t-19 -10.5t-14.5 -18t-4 -26q0 -32 18.5 -62.5t48.5 -48.5q-3 -9 -3 -18v0v-8q-80 -22 -146.5 -94.5t-103.5 -172t-37 -201.5q0 -42 6 -75t21 -56t29.5 -40t43 -27.5t49 -16.5t60 -8.5t62.5 -3t70 -0.5h6h6
q47 0 70.5 0.5t64 3t61 8.5t50 16.5t44.5 27.5t30.5 40t22 56t6.5 75zM471 445l45 45q10 10 23 10t22 -10q10 -9 10 -22.5t-10 -22.5l-44 -45q-10 -9 -23 -9t-23 9q-9 9 -9 22.5t9 22.5zM280 490q9 10 22 10t23 -10l45 -45q9 -9 9 -22.5t-9 -22.5t-22 -9t-23 9l-45 45
q-9 9 -9 22.5t9 22.5zM544 194q14 0 23 -9.5t9 -22.5t-9 -22.5t-23 -9.5h-95v-96q0 -13 -9.5 -22.5t-22.5 -9.5q-14 0 -23 9.5t-9 22.5v96h-96q-13 0 -22.5 9.5t-9.5 22.5t9 22.5t23 9.5h96v64h-96q-13 0 -22.5 9.5t-9.5 21.5q0 14 9 23t23 9h255q14 0 23 -9.5t9 -22.5
t-9 -22t-23 -9h-95v-64h95zM781 353q18 26 18 62q0 6 -0.5 10.5t-3.5 7.5l-5 5t-8 2.5t-8.5 0.5h-11.5h-12h-21q3 -5 7 -14t15.5 -37t21 -55.5t19 -67t13.5 -75.5t0.5 -75.5t-16.5 -72t-40.5 -61.5t-68.5 -47h30h51t49.5 2t46.5 6t40.5 12t32 19.5t21 30t7.5 42.5
q0 76 -59 174t-118 131z" />
    <glyph glyph-name="caidanlan-jiekuanguanli" unicode="&#xe616;" 
d="M752 608q43 6 75 -3q22 -7 46 -18q19 -9 42 -23q23 -15 42 -35q-10 71 -56 124q-21 25 -45 41q-45 30 -104 37v101l-184 -165l184 -170v111zM768 165q0 100 -37.5 199t-104.5 171.5t-146 95.5q1 5 1 9v1q0 8 -3 17q30 18 48 49t18 63q0 15 -3.5 26t-13.5 18t-18.5 10.5
t-27 5t-29 2t-34.5 0.5t-34.5 -0.5t-29.5 -2t-27.5 -5t-19 -10.5t-14.5 -18t-4 -26q0 -32 18.5 -62.5t48.5 -48.5q-3 -9 -3 -18v0v-8q-80 -22 -146.5 -94.5t-103.5 -172t-37 -201.5q0 -42 6 -75t21 -56t29.5 -40t43 -27.5t49 -16.5t60 -8.5t62.5 -3t70 -0.5h6h6
q47 0 70.5 0.5t64 3t61 8.5t50 16.5t44.5 27.5t30.5 40t22 56t6.5 75zM471 445l45 45q10 10 23 10t22 -10q10 -9 10 -22.5t-10 -22.5l-44 -45q-10 -9 -23 -9t-23 9q-9 9 -9 22.5t9 22.5zM280 490q9 10 22 10t23 -10l45 -45q9 -9 9 -22.5t-9 -22.5t-22 -9t-23 9l-45 45
q-9 9 -9 22.5t9 22.5zM544 194q14 0 23 -9.5t9 -22.5t-9 -22.5t-23 -9.5h-95v-96q0 -13 -9.5 -22.5t-22.5 -9.5q-14 0 -23 9.5t-9 22.5v96h-96q-13 0 -22.5 9.5t-9.5 22.5t9 22.5t23 9.5h96v64h-96q-13 0 -22.5 9.5t-9.5 21.5q0 14 9 23t23 9h255q14 0 23 -9.5t9 -22.5
t-9 -22t-23 -9h-95v-64h95zM781 353q18 26 18 62q0 6 -0.5 10.5t-3.5 7.5l-5 5t-8 2.5t-8.5 0.5h-11.5h-12h-21q3 -5 7 -14t15.5 -37t21 -55.5t19 -67t13.5 -75.5t0.5 -75.5t-16.5 -72t-40.5 -61.5t-68.5 -47h30h51t49.5 2t46.5 6t40.5 12t32 19.5t21 30t7.5 42.5
q0 76 -59 174t-118 131z" />
    <glyph glyph-name="chanpinleixingguanli-bianji" unicode="&#xe617;" 
d="M808 832h-592q-61 0 -104 -43t-43 -104v-591q0 -61 43 -104.5t104 -43.5h592q61 0 104 43.5t43 104.5v591q0 61 -43 104t-104 43zM420 140l-166 -46l45 166l261 261l122 -119zM782 502l-63 -63l-122 118l65 66q25 25 60 25t60 -25t25 -60.5t-25 -60.5z" />
    <glyph glyph-name="caidanlan-xiala" unicode="&#xe619;" 
d="M491 166q16 -7 34 -4.5t31 13.5l387 352q16 14 15 33.5t-17.5 33.5t-39.5 13.5t-39 -15.5l-348 -315l-352 314q-16 14 -39 14.5t-40 -13.5t-17 -34q0 -19 15 -33l392 -348q0 -1 1 -1.5t1.5 -0.5t1 -0.5l0.5 -0.5q2 -2 11 -6q0 -1 1.5 -1.5z" />
    <glyph glyph-name="danchuang-cuowutishi" unicode="&#xe61a;" 
d="M717 515q7 7 7 16t-7 15l-46 45q-6 7 -15 7t-15 -7l-129 -128l-130 128q-6 7 -15 7t-15 -7l-46 -45q-6 -6 -6 -15t6 -16l130 -129l-130 -129q-6 -6 -6 -15t6 -16l46 -45q6 -6 15 -6t15 6l130 129l129 -129q6 -6 15 -6t15 6l46 45q7 7 7 16t-7 15l-130 129zM512 -62
q-92 0 -174 35t-142.5 96t-95.5 142.5t-35 174t35 174t95.5 142t142.5 95.5t174 35t174 -35t142.5 -95.5t95.5 -142t35 -174t-35 -174t-95.5 -142.5t-142.5 -96t-174 -35z" />
    <glyph glyph-name="chanpinleixingguanli-shanchu" unicode="&#xe61b;" 
d="M512 160q6 0 10.5 4.5t4.5 11.5v197q0 7 -4.5 11.5t-10.5 4.5t-10.5 -4.5t-4.5 -11.5v-197q0 -7 4.5 -11.5t10.5 -4.5zM421 160q6 0 10.5 4.5t4.5 11.5v197q0 7 -4.5 11.5t-10.5 4.5t-10.5 -4.5t-4.5 -11.5v-197q0 -7 4.5 -11.5t10.5 -4.5zM603 160q6 0 10.5 4.5
t4.5 11.5v197q0 7 -4.5 11.5t-10.5 4.5t-10.5 -4.5t-4.5 -11.5v-197q0 -7 4.5 -11.5t10.5 -4.5zM512 648q-16 0 -26.5 -9.5t-10.5 -27.5v-37h74v37q0 18 -10 27.5t-27 9.5zM808 832h-592q-61 0 -104 -43t-43 -104v-591q0 -61 43 -104.5t104 -43.5h592q61 0 104 43.5
t43 104.5v591q0 61 -43 104t-104 43zM696 168q0 -31 -21.5 -52.5t-51.5 -21.5h-222q-30 0 -51.5 21.5t-21.5 52.5v295h368v-295zM699 500h-374q-14 0 -24 11t-10 26q0 24 29 38h117v73q0 14 12 25t26 11h79q14 0 23.5 -10.5t9.5 -25.5v-73h112q4 -1 9.5 -3t15 -12t9.5 -23
q0 -15 -10 -26t-24 -11z" />
    <glyph glyph-name="danchuang-chenggongtishi" unicode="&#xe61c;" 
d="M762 483l-326 -326q-7 -7 -15.5 -7t-15.5 7l-6 6l-180 181q-6 7 -6 15.5t6 14.5l44 44q7 7 15.5 7t14.5 -7l127 -128l268 267q6 7 14.5 7t15.5 -7l44 -44q6 -6 6 -14.5t-6 -15.5zM512 832q-93 0 -174.5 -35t-142.5 -96t-96 -142.5t-35 -174.5t35 -174.5t96 -142.5
t142.5 -96t174.5 -35t174.5 35t142.5 96t96 142.5t35 174.5t-35 174.5t-96 142.5t-142.5 96t-174.5 35z" />
    <glyph glyph-name="danchuang-caozuotishi" unicode="&#xe61d;" 
d="M564 355q0 -21 -15.5 -36t-36.5 -15t-36.5 15t-15.5 36v241q0 21 15.5 36t36.5 15t36.5 -15t15.5 -36v-241zM512 132q-21 0 -36.5 15t-15.5 36.5t15.5 36.5t36.5 15t36.5 -15t15.5 -36.5t-15.5 -36.5t-36.5 -15zM512 832q-92 0 -174 -35t-142.5 -95.5t-95.5 -142
t-35 -174t35 -174t95.5 -142.5t142.5 -96t174 -35t174 35t142.5 96t95.5 142.5t35 174t-35 174t-95.5 142t-142.5 95.5t-174 35z" />
    <glyph glyph-name="caidanlan-cunkuanduizhangchaxun-copy" unicode="&#xe610;" 
d="M284 558h-58q-13 0 -21.5 -8.5t-8.5 -21.5q0 -11 9 -20t21 -9h58q12 0 20.5 8.5t8.5 20.5t-8.5 21t-20.5 9zM447 832q-103 0 -190.5 -50.5t-138 -138t-50.5 -190.5t50.5 -190.5t138 -138t190.5 -50.5t190 50.5t138 138t51 190.5t-51 190.5t-138 138t-190 50.5zM447 132
q-87 0 -161 43t-117 117t-43 161t43 161t117 117t161 43t161 -43t117 -117t43 -161t-43 -161t-117 -117t-161 -43zM946 36l-96 96q-17 17 -41 17t-41.5 -17t-17 -41t17.5 -42l96 -96q17 -17 41.5 -17t41.5 17t17 41.5t-18 41.5zM371 587q12 0 21 8.5t9 20.5v58
q0 12 -8.5 20.5t-21.5 8.5q-11 0 -20 -8.5t-9 -20.5v-58q0 -12 8.5 -20.5t20.5 -8.5zM548 393l62 61q9 9 9 21t-9 21q-8 8 -20 8t-21 -8l-62 -62l-41 41l62 62q9 9 8.5 20.5t-8.5 20.5q-9 8 -21 8.5t-20 -8.5l-165 -165q-9 -9 -9 -21t9 -20q8 -8 20 -8.5t21 8.5l62 62
l41 -41l-62 -62q-9 -9 -8.5 -21t8.5 -21q8 -8 20.5 -8t20.5 8l62 62l104 -103q8 -8 20 -8t20.5 8.5t8.5 20.5t-8 20z" />
    <glyph glyph-name="yujing" unicode="&#xe641;" 
d="M881 200h-53v263q0 117 -75.5 205t-188.5 107l0.5 1.5t0.5 2.5q0 22 -15.5 37.5t-37.5 15.5t-37.5 -15.5t-15.5 -37.5q0 -1 0.5 -2.5l0.5 -1.5q-113 -19 -188.5 -107t-75.5 -205v-263h-53q-22 0 -37.5 -15.5t-15.5 -37.5t15.5 -37.5t37.5 -15.5h738q22 0 37.5 15.5
t15.5 37.5t-15.5 37.5t-37.5 15.5zM512 -64q44 0 74.5 31t30.5 74h-210q0 -43 30.5 -74t74.5 -31z" />
    <glyph glyph-name="dianjixiala" unicode="&#xe642;" 
d="M491 352q16 -7 34 -4.5t31 13.5l389 353q16 15 15.5 34.5t-17.5 33.5t-40 13t-39 -15l-350 -317l-354 316q-16 14 -39.5 14.5t-39.5 -13.5q-17 -14 -17 -35q0 -19 15 -33l393 -349q1 -1 2 -1.5l1 -0.5l0.5 -0.5l1.5 -1.5t11 -6l1.5 -0.5zM491 -22q16 -7 34 -4.5t31 14.5
l389 352q16 15 15.5 35t-17.5 33.5t-40 13t-39 -15.5l-350 -316l-354 315q-16 14 -39.5 14.5t-39.5 -13.5q-17 -14 -17 -34q0 -19 15 -33l393 -350q1 0 2 -0.5t1 -1t0.5 -1t1.5 -0.5q1 -2 11 -6q0 -1 1.5 -1.5z" />
    <glyph glyph-name="chongzhi" unicode="&#xe643;" 
d="M512 832q-185 0 -316.5 -131t-131.5 -317t131.5 -317t316.5 -131t316.5 131t131.5 317q0 122 -60 225t-163 163t-225 60zM568 113q-24 -20 -55 -20q-30 0 -55 19l-247 217q-9 10 -9 23q0 12 7 21.5t19 12.5q3 1 8 1h73v227q0 24 16.5 40t40.5 16h294q24 0 40.5 -16
t16.5 -40v-226h72v0v0h0.5h0.5h1v-1q14 0 24 -10.5t10 -24.5q0 -12 -9 -22zM655 584h-61l-82 -161h-2l-81 159h-60l81 -159h-79v-51h115v-32h-115v-50h115v-89h51v89h115v50h-115v32h115v51h-79z" />
    <glyph glyph-name="duizhang" unicode="&#xe644;" 
d="M627.5 601q-9.5 9 -22.5 8.5t-22 -9.5l-71 -73l-71 73q-9 9 -22 9.5t-22.5 -8.5t-9.5 -22t9 -23l82 -85h-60q-13 0 -22 -9t-9 -22t9 -22.5t22 -9.5h59v-47h-59q-13 0 -22 -9.5t-9 -22.5t9 -22t22 -9h59v-108q0 -13 9 -22.5t22 -9.5t22.5 9.5t9.5 22.5v108h57q13 0 22 9
t9 22t-9 22.5t-22 9.5h-57v47h57q13 0 22 9.5t9 22.5t-9 22t-22 9h-50l82 85q9 10 8.5 23t-10 22zM948 5l-112 112q100 121 100 279q0 49 -11 97v0q-8 21 -30 21q-13 0 -22.5 -9.5t-9.5 -22.5v-0.5v-0.5v0v-0.5v-0.5q1 -4 2 -9q8 -37 8 -75q0 -101 -50 -187t-136 -136
t-187 -50t-187 50t-136 136t-50 187t50 187t136 136t187 50q116 0 211 -66q9 -6 19 -6q13 0 22.5 9.5t9.5 22.5q0 16 -14 26v0q-88 60 -193 74q-28 3 -55 3v0q-89 0 -169.5 -34.5t-139 -93t-93 -139t-34.5 -169.5t34.5 -169.5t93 -139t139 -93t169.5 -34.5q158 0 279 100
l112 -112q12 -12 28.5 -12t28.5 12t12 28.5t-12 28.5z" />
    <glyph glyph-name="sousuo" unicode="&#xe645;" 
d="M944 36l-240 240q19 27 32 58q28 65 28 136.5t-28 136.5q-26 62 -74.5 110.5t-111.5 75.5q-65 27 -136 27t-136 -27q-63 -27 -111.5 -75.5t-74.5 -110.5q-28 -65 -28 -136.5t28 -136.5q26 -62 74.5 -110.5t111.5 -75.5q65 -27 136 -27t136 27q46 20 85 52l236 -237
q15 -15 36.5 -15t36.5 15t15 36.5t-15 36.5zM414 203q-111 0 -189 78.5t-78 189t78 189t189 78.5t189 -78.5t78 -189t-78 -189t-189 -78.5z" />
    <glyph glyph-name="riqi" unicode="&#xe646;" 
d="M540 334v-199h196v199h-196zM213 32v501h598v-501h-598zM683 732h-342v100h-128v-100h-41q-24 0 -41 -17t-17 -41v-679q0 -25 17 -42t41 -17h680q24 0 41 17t17 42v679q0 24 -17 41t-41 17h-41v100h-128v-100z" />
    <glyph glyph-name="dianjishaixuan" unicode="&#xe647;" 
d="M452 145l-347 376q-49 53 -32.5 91t89.5 38h700q73 0 89.5 -38t-33.5 -91l-346 -376q-25 -27 -60 -27t-60 27z" />
    <glyph glyph-name="guanbidanchuang" unicode="&#xe648;" 
d="M512 470l-344 344q-18 18 -43 18t-43 -18t-18 -43t18 -43l344 -344l-344 -344q-18 -18 -18 -43t18 -43t43 -18t43 18l344 344l344 -344q18 -18 43 -18t43 18t18 43t-18 43l-344 344l344 344q18 18 18 43t-18 43t-43 18t-43 -18z" />
    <glyph glyph-name="dingbulan-wo" unicode="&#xe618;" 
d="M512 405q88 0 150.5 62.5t62.5 151t-62.5 151t-150.5 62.5t-150.5 -62.5t-62.5 -151t62.5 -151t150.5 -62.5zM709 405q85 -52 136 -141.5t51 -194.5v-3q0 -53 -37.5 -91.5t-90.5 -38.5h-512q-53 0 -90.5 38t-37.5 92v2v1q0 105 51 194.5t136 141.5q85 -75 197 -75t197 75
z" />
    <glyph glyph-name="dingbulan-zhuxiao" unicode="&#xe61f;" 
d="M708 255l70 62h-391q-20 0 -34.5 14.5t-14.5 34.5t14.5 34.5t34.5 14.5h391l-70 62q-16 15 -16 37q0 20 14.5 34.5t35.5 14.5q19 0 33 -12l165 -148q16 -15 16 -37t-16 -37l-165 -148q-15 -12 -33 -12q-21 0 -35.5 14.5t-14.5 34.5q0 22 16 37zM72 783q0 20 14.5 34.5
t34.5 14.5h427q21 0 35.5 -14.5t14.5 -35t-14.5 -35t-35.5 -14.5h-377l-6 -698h377q21 0 35.5 -14.5t14.5 -35t-14.5 -35t-35.5 -14.5h-427q-20 0 -34.5 14.5t-14.5 34.5z" />
    <glyph glyph-name="denglu-yonghuming" unicode="&#xe620;" 
d="M722 618.5q0 88.5 -61.5 151t-148.5 62.5t-148.5 -62.5t-61.5 -151t61.5 -151t148.5 -62.5t148.5 62.5t61.5 151zM890 69v-3q0 -53 -37 -91.5t-89 -38.5h-504q-52 0 -89 38t-37 92v2q0 106 50 195.5t134 141.5q83 -75 194 -75t194 75q84 -52 134 -141.5t50 -194.5z" />
    <glyph glyph-name="denglu-mima" unicode="&#xe621;" 
d="M541 97q0 -12 -8.5 -20.5t-20.5 -8.5t-20.5 8.5t-8.5 20.5v156q-27 9 -43 32t-16 52q0 38 25.5 64t62.5 26t62.5 -26t25.5 -64q0 -29 -16 -52t-43 -32v-65h30q12 0 20.5 -9t8.5 -21q0 -13 -8.5 -21.5t-20.5 -8.5h-30v-31zM248 531q-80 -38 -129 -114.5t-49 -168.5
q0 -131 92 -223t222 -92h256q131 0 222.5 92t91.5 223q0 92 -49 168.5t-129 114.5q1 16 1 31v0q0 112 -77.5 191t-187.5 79t-187.5 -79t-77.5 -191q0 -15 1 -31zM689 562q0 75 -52 127.5t-125 52.5t-125 -52.5t-52 -127.5h354z" />
    <glyph glyph-name="denglu-yanzhengma" unicode="&#xe622;" 
d="M508 832q-153 -157 -210 -199q-82 -60 -135 -28q-24 14 -48 49q0 -63 11 -139t31.5 -157t54.5 -156t75.5 -134.5t99 -95.5t121 -36t121.5 36t101 95.5t77.5 134.5t56.5 156t33.5 157t11.5 139q-22 -32 -43.5 -48.5t-50 -12.5t-54 15.5t-70 49.5t-81 72.5t-102.5 101.5z
M705 424l-193 -196q-10 -10 -24 -10t-24 10l-96 98q-10 10 -10 24.5t10 24.5t24 10t24 -10l72 -74l169 172q10 10 24 10t24 -10.5t10 -24.5t-10 -24z" />
  </font>
</defs>
</svg>
